<svg xmlns="http://www.w3.org/2000/svg" version="1.1" xmlns:xlink="http://www.w3.org/1999/xlink" xmlns:svgjs="http://svgjs.dev/svgjs" width="1514" height="964" preserveAspectRatio="none" viewBox="0 0 1514 964"><g mask="url(&quot;#SvgjsMask1022&quot;)" fill="none"><rect width="1514" height="964" x="0" y="0" fill="#0e2a47"></rect><path d="M429.44,855.279C494.271,851.845,536.951,794.674,567.92,737.615C597.072,683.903,614.923,621.122,585.646,567.478C555.323,511.917,492.665,480.85,429.44,483.876C370.814,486.682,327.962,531.331,297.152,581.287C264.177,634.754,235.675,697.195,262.988,753.765C293.273,816.491,359.883,858.963,429.44,855.279" fill="rgba(28, 83, 142, 0.4)" class="triangle-float2"></path><path d="M1334.4683995259068 6.55902877580597L1463.406635826971 184.38342312009001 1544.5533840188496 10.363660045760085z" fill="rgba(28, 83, 142, 0.4)" class="triangle-float2"></path><path d="M1092.9464711431924 686.1219634771655L895.6601161858364 644.1874542030184 853.7256069116893 841.4738091603745 1051.0119618690453 883.4083184345216z" fill="rgba(28, 83, 142, 0.4)" class="triangle-float1"></path><path d="M761.55 109.31 a163.12 163.12 0 1 0 326.24 0 a163.12 163.12 0 1 0 -326.24 0z" fill="rgba(28, 83, 142, 0.4)" class="triangle-float2"></path><path d="M835.123,876.701C918.495,874.104,980.653,812.327,1026.083,742.372C1077.571,663.089,1130.476,570.474,1089.234,485.41C1044.245,392.619,938.243,349.222,835.123,348.507C730.642,347.782,623.286,389.273,574.833,481.843C528.905,569.588,567.876,672.258,622.384,754.946C670.582,828.061,747.593,879.427,835.123,876.701" fill="rgba(28, 83, 142, 0.4)" class="triangle-float1"></path><path d="M1000.609,792.444C1060.607,792.837,1100.198,737.079,1129.402,684.667C1157.589,634.082,1179.855,573.681,1150.233,523.923C1121.062,474.922,1057.636,468.363,1000.609,468.32C943.48,468.277,879.498,474.42,850.597,523.699C821.477,573.351,846.648,632.739,874.703,683C903.753,735.042,941.009,792.054,1000.609,792.444" fill="rgba(28, 83, 142, 0.4)" class="triangle-float2"></path><path d="M356.532,344.889C412.496,345.993,455.49,301.311,483.197,252.674C510.566,204.63,522.644,147.437,496.883,98.512C469.45,46.411,415.387,10.322,356.532,12.11C300.197,13.822,255.496,56.241,230.217,106.615C207.55,151.784,214.566,203.191,238.237,247.842C263.841,296.14,301.878,343.811,356.532,344.889" fill="rgba(28, 83, 142, 0.4)" class="triangle-float3"></path><path d="M1375.085694269458-58.06568180386961L1301.9051417182768 114.33689605611974 1474.3077195782662 187.5174486073008 1547.4882721294473 15.114870747311443z" fill="rgba(28, 83, 142, 0.4)" class="triangle-float3"></path><path d="M271.2960426327022 607.416041162185L13.99413182724362 552.46848663009 81.23784946069577 772.412776528075z" fill="rgba(28, 83, 142, 0.4)" class="triangle-float3"></path><path d="M577.391,657.884C656.346,655.618,727.232,610.713,765.408,541.563C802.333,474.68,796.087,394.934,759.626,327.797C721.216,257.07,657.759,199.672,577.391,195.355C489.625,190.641,401.915,230.21,357.769,306.212C313.447,382.518,322.957,478.074,369.7,552.921C413.738,623.438,494.287,660.269,577.391,657.884" fill="rgba(28, 83, 142, 0.4)" class="triangle-float3"></path><path d="M1283.2013527738488 627.566876541211L1073.2412104413315 590.5452385745987 1246.1797148072365 837.5270188737281z" fill="rgba(28, 83, 142, 0.4)" class="triangle-float3"></path><path d="M1441.643,424.288C1484.543,424.73,1524.097,402.301,1546.456,365.686C1569.842,327.389,1574.537,280.201,1553.987,240.31C1531.602,196.858,1490.482,160.261,1441.643,162.229C1395.055,164.106,1364.885,207.107,1343.956,248.772C1325.539,285.435,1320.555,327.713,1340.508,363.563C1361.004,400.388,1399.5,423.854,1441.643,424.288" fill="rgba(28, 83, 142, 0.4)" class="triangle-float3"></path><path d="M654.5250618971234 231.39882098626936L474.00040304794845 100.23997897868449 342.84156104036356 280.7646378278594 523.3662198895385 411.92347983544425z" fill="rgba(28, 83, 142, 0.4)" class="triangle-float3"></path><path d="M-28.219780727558955 481.18268876269826L153.2448282795907 380.5952134716976 52.657352988590034 199.13060446454796-128.8072560185596 299.7180797555486z" fill="rgba(28, 83, 142, 0.4)" class="triangle-float1"></path></g><defs><mask id="SvgjsMask1022"><rect width="1514" height="964" fill="#ffffff"></rect></mask><style>
                @keyframes float1 {
                    0%{transform: translate(0, 0)}
                    50%{transform: translate(-10px, 0)}
                    100%{transform: translate(0, 0)}
                }

                .triangle-float1 {
                    animation: float1 5s infinite;
                }

                @keyframes float2 {
                    0%{transform: translate(0, 0)}
                    50%{transform: translate(-5px, -5px)}
                    100%{transform: translate(0, 0)}
                }

                .triangle-float2 {
                    animation: float2 4s infinite;
                }

                @keyframes float3 {
                    0%{transform: translate(0, 0)}
                    50%{transform: translate(0, -10px)}
                    100%{transform: translate(0, 0)}
                }

                .triangle-float3 {
                    animation: float3 6s infinite;
                }
            </style></defs></svg>